<mxfile host="app.diagrams.net" agent="Mozilla/5.0 (Windows NT 10.0; Win64; x64) AppleWebKit/537.36 (KHTML, like Gecko) Chrome/131.0.0.0 Safari/537.36" version="26.0.2">
  <diagram name="Page-1" id="BmjI-gi1fDY5u3P6NIZJ">
    <mxGraphModel dx="724" dy="392" grid="1" gridSize="10" guides="1" tooltips="1" connect="1" arrows="1" fold="1" page="1" pageScale="1" pageWidth="850" pageHeight="1100" math="0" shadow="0">
      <root>
        <mxCell id="0" />
        <mxCell id="1" parent="0" />
        <mxCell id="xXiE4sU7MH-f-Pu0WzMa-69" style="edgeStyle=orthogonalEdgeStyle;rounded=0;orthogonalLoop=1;jettySize=auto;html=1;exitX=0.687;exitY=0.998;exitDx=0;exitDy=0;entryX=0.628;entryY=-0.003;entryDx=0;entryDy=0;exitPerimeter=0;entryPerimeter=0;" parent="1" source="xXiE4sU7MH-f-Pu0WzMa-1" target="xXiE4sU7MH-f-Pu0WzMa-26" edge="1">
          <mxGeometry relative="1" as="geometry" />
        </mxCell>
        <mxCell id="xXiE4sU7MH-f-Pu0WzMa-1" value="Raspberry Pi" style="rounded=1;whiteSpace=wrap;html=1;" parent="1" vertex="1">
          <mxGeometry x="315" y="230" width="210" height="390" as="geometry" />
        </mxCell>
        <mxCell id="xXiE4sU7MH-f-Pu0WzMa-2" value="LiDAR" style="rounded=1;whiteSpace=wrap;html=1;" parent="1" vertex="1">
          <mxGeometry x="210" y="130" width="110" height="40" as="geometry" />
        </mxCell>
        <mxCell id="xXiE4sU7MH-f-Pu0WzMa-4" value="GNSS Receiver" style="rounded=1;whiteSpace=wrap;html=1;" parent="1" vertex="1">
          <mxGeometry x="365" y="130" width="110" height="40" as="geometry" />
        </mxCell>
        <mxCell id="xXiE4sU7MH-f-Pu0WzMa-5" value="IMU" style="rounded=1;whiteSpace=wrap;html=1;" parent="1" vertex="1">
          <mxGeometry x="530" y="130" width="110" height="40" as="geometry" />
        </mxCell>
        <mxCell id="xXiE4sU7MH-f-Pu0WzMa-6" value="" style="rounded=1;whiteSpace=wrap;html=1;" parent="1" vertex="1">
          <mxGeometry x="40" y="260" width="140" height="220" as="geometry" />
        </mxCell>
        <mxCell id="xXiE4sU7MH-f-Pu0WzMa-7" value="Encoder" style="rounded=1;whiteSpace=wrap;html=1;" parent="1" vertex="1">
          <mxGeometry x="57" y="300" width="106" height="50" as="geometry" />
        </mxCell>
        <mxCell id="xXiE4sU7MH-f-Pu0WzMa-8" value="DC Moter" style="rounded=1;whiteSpace=wrap;html=1;" parent="1" vertex="1">
          <mxGeometry x="55" y="390" width="110" height="50" as="geometry" />
        </mxCell>
        <mxCell id="xXiE4sU7MH-f-Pu0WzMa-9" value="" style="rounded=1;whiteSpace=wrap;html=1;" parent="1" vertex="1">
          <mxGeometry x="680" y="290" width="130" height="220" as="geometry" />
        </mxCell>
        <mxCell id="xXiE4sU7MH-f-Pu0WzMa-10" value="Encoder" style="rounded=1;whiteSpace=wrap;html=1;" parent="1" vertex="1">
          <mxGeometry x="692" y="330" width="106" height="50" as="geometry" />
        </mxCell>
        <mxCell id="xXiE4sU7MH-f-Pu0WzMa-11" value="DC Moter" style="rounded=1;whiteSpace=wrap;html=1;" parent="1" vertex="1">
          <mxGeometry x="690" y="420" width="110" height="50" as="geometry" />
        </mxCell>
        <mxCell id="xXiE4sU7MH-f-Pu0WzMa-14" value="" style="endArrow=none;html=1;rounded=0;entryX=0.5;entryY=1;entryDx=0;entryDy=0;endFill=0;startArrow=classic;startFill=1;" parent="1" target="xXiE4sU7MH-f-Pu0WzMa-7" edge="1">
          <mxGeometry width="50" height="50" relative="1" as="geometry">
            <mxPoint x="315" y="380" as="sourcePoint" />
            <mxPoint x="420" y="330" as="targetPoint" />
            <Array as="points">
              <mxPoint x="200" y="380" />
              <mxPoint x="110" y="380" />
            </Array>
          </mxGeometry>
        </mxCell>
        <mxCell id="xXiE4sU7MH-f-Pu0WzMa-17" value="" style="endArrow=classic;html=1;rounded=0;exitX=1;exitY=0.5;exitDx=0;exitDy=0;entryX=0;entryY=0.5;entryDx=0;entryDy=0;" parent="1" source="xXiE4sU7MH-f-Pu0WzMa-7" edge="1">
          <mxGeometry width="50" height="50" relative="1" as="geometry">
            <mxPoint x="240" y="310" as="sourcePoint" />
            <mxPoint x="315" y="325" as="targetPoint" />
          </mxGeometry>
        </mxCell>
        <mxCell id="xXiE4sU7MH-f-Pu0WzMa-19" value="" style="endArrow=classic;html=1;rounded=0;entryX=0.5;entryY=0;entryDx=0;entryDy=0;exitX=0;exitY=0.5;exitDx=0;exitDy=0;" parent="1" source="xXiE4sU7MH-f-Pu0WzMa-41" target="xXiE4sU7MH-f-Pu0WzMa-7" edge="1">
          <mxGeometry width="50" height="50" relative="1" as="geometry">
            <mxPoint x="310" y="270" as="sourcePoint" />
            <mxPoint x="110" y="240" as="targetPoint" />
            <Array as="points">
              <mxPoint x="110" y="270" />
            </Array>
          </mxGeometry>
        </mxCell>
        <mxCell id="xXiE4sU7MH-f-Pu0WzMa-21" value="" style="endArrow=classic;html=1;rounded=0;entryX=0.994;entryY=0.155;entryDx=0;entryDy=0;entryPerimeter=0;exitX=0;exitY=0.5;exitDx=0;exitDy=0;" parent="1" source="xXiE4sU7MH-f-Pu0WzMa-10" edge="1">
          <mxGeometry width="50" height="50" relative="1" as="geometry">
            <mxPoint x="693.26" y="354.8" as="sourcePoint" />
            <mxPoint x="525" y="354.90999999999997" as="targetPoint" />
          </mxGeometry>
        </mxCell>
        <mxCell id="xXiE4sU7MH-f-Pu0WzMa-22" value="" style="endArrow=classic;html=1;rounded=0;entryX=0.5;entryY=0;entryDx=0;entryDy=0;" parent="1" target="xXiE4sU7MH-f-Pu0WzMa-10" edge="1">
          <mxGeometry width="50" height="50" relative="1" as="geometry">
            <mxPoint x="290" y="270" as="sourcePoint" />
            <mxPoint x="620" y="250" as="targetPoint" />
            <Array as="points">
              <mxPoint x="290" y="220" />
              <mxPoint x="380" y="220" />
              <mxPoint x="745" y="220" />
            </Array>
          </mxGeometry>
        </mxCell>
        <mxCell id="xXiE4sU7MH-f-Pu0WzMa-24" value="" style="endArrow=classic;html=1;rounded=0;entryX=0.5;entryY=1;entryDx=0;entryDy=0;exitX=1;exitY=0.436;exitDx=0;exitDy=0;exitPerimeter=0;" parent="1" source="xXiE4sU7MH-f-Pu0WzMa-1" target="xXiE4sU7MH-f-Pu0WzMa-10" edge="1">
          <mxGeometry width="50" height="50" relative="1" as="geometry">
            <mxPoint x="530" y="400" as="sourcePoint" />
            <mxPoint x="120" y="360" as="targetPoint" />
            <Array as="points">
              <mxPoint x="600" y="400" />
              <mxPoint x="745" y="400" />
            </Array>
          </mxGeometry>
        </mxCell>
        <mxCell id="xXiE4sU7MH-f-Pu0WzMa-26" value="Motor Driver Carrier" style="rounded=1;whiteSpace=wrap;html=1;" parent="1" vertex="1">
          <mxGeometry x="290" y="690" width="270" height="90" as="geometry" />
        </mxCell>
        <mxCell id="xXiE4sU7MH-f-Pu0WzMa-48" style="edgeStyle=orthogonalEdgeStyle;rounded=0;orthogonalLoop=1;jettySize=auto;html=1;exitX=0;exitY=0.5;exitDx=0;exitDy=0;entryX=0.25;entryY=1;entryDx=0;entryDy=0;" parent="1" source="xXiE4sU7MH-f-Pu0WzMa-27" target="xXiE4sU7MH-f-Pu0WzMa-26" edge="1">
          <mxGeometry relative="1" as="geometry" />
        </mxCell>
        <mxCell id="xXiE4sU7MH-f-Pu0WzMa-27" value="12V Battery" style="rounded=1;whiteSpace=wrap;html=1;" parent="1" vertex="1">
          <mxGeometry x="365" y="835" width="120" height="60" as="geometry" />
        </mxCell>
        <mxCell id="xXiE4sU7MH-f-Pu0WzMa-28" value="" style="endArrow=classic;html=1;rounded=0;entryX=0.182;entryY=1;entryDx=0;entryDy=0;exitX=0.99;exitY=0.05;exitDx=0;exitDy=0;exitPerimeter=0;entryPerimeter=0;" parent="1" source="xXiE4sU7MH-f-Pu0WzMa-1" target="xXiE4sU7MH-f-Pu0WzMa-5" edge="1">
          <mxGeometry width="50" height="50" relative="1" as="geometry">
            <mxPoint x="530" y="250" as="sourcePoint" />
            <mxPoint x="450" y="290" as="targetPoint" />
            <Array as="points">
              <mxPoint x="550" y="250" />
            </Array>
          </mxGeometry>
        </mxCell>
        <mxCell id="xXiE4sU7MH-f-Pu0WzMa-31" value="" style="endArrow=none;html=1;rounded=0;entryX=1;entryY=0.5;entryDx=0;entryDy=0;exitX=1;exitY=0.5;exitDx=0;exitDy=0;curved=0;startArrow=classic;startFill=1;endFill=0;" parent="1" source="xXiE4sU7MH-f-Pu0WzMa-40" target="xXiE4sU7MH-f-Pu0WzMa-5" edge="1">
          <mxGeometry width="50" height="50" relative="1" as="geometry">
            <mxPoint x="525" y="310" as="sourcePoint" />
            <mxPoint x="585" y="200" as="targetPoint" />
            <Array as="points">
              <mxPoint x="585" y="325" />
              <mxPoint x="670" y="325" />
              <mxPoint x="670" y="150" />
            </Array>
          </mxGeometry>
        </mxCell>
        <mxCell id="xXiE4sU7MH-f-Pu0WzMa-37" value="" style="shape=waypoint;sketch=0;fillStyle=solid;size=6;pointerEvents=1;points=[];fillColor=none;resizable=0;rotatable=0;perimeter=centerPerimeter;snapToPoint=1;" parent="1" vertex="1">
          <mxGeometry x="280" y="260" width="20" height="20" as="geometry" />
        </mxCell>
        <mxCell id="xXiE4sU7MH-f-Pu0WzMa-38" value="" style="endArrow=classic;startArrow=classic;html=1;rounded=0;entryX=0.75;entryY=1;entryDx=0;entryDy=0;exitX=1;exitY=0;exitDx=0;exitDy=0;" parent="1" target="xXiE4sU7MH-f-Pu0WzMa-5" edge="1">
          <mxGeometry width="50" height="50" relative="1" as="geometry">
            <mxPoint x="525" y="300" as="sourcePoint" />
            <mxPoint x="410" y="260" as="targetPoint" />
            <Array as="points">
              <mxPoint x="613" y="300" />
            </Array>
          </mxGeometry>
        </mxCell>
        <mxCell id="xXiE4sU7MH-f-Pu0WzMa-39" value="3.3V" style="text;html=1;align=center;verticalAlign=middle;whiteSpace=wrap;rounded=0;" parent="1" vertex="1">
          <mxGeometry x="474" y="235" width="60" height="30" as="geometry" />
        </mxCell>
        <mxCell id="xXiE4sU7MH-f-Pu0WzMa-40" value="GND" style="text;html=1;align=center;verticalAlign=middle;whiteSpace=wrap;rounded=0;" parent="1" vertex="1">
          <mxGeometry x="465" y="310" width="60" height="30" as="geometry" />
        </mxCell>
        <mxCell id="xXiE4sU7MH-f-Pu0WzMa-41" value="3.3V" style="text;html=1;align=center;verticalAlign=middle;whiteSpace=wrap;rounded=0;" parent="1" vertex="1">
          <mxGeometry x="315" y="256" width="60" height="30" as="geometry" />
        </mxCell>
        <mxCell id="xXiE4sU7MH-f-Pu0WzMa-42" value="GND" style="text;html=1;align=center;verticalAlign=middle;whiteSpace=wrap;rounded=0;" parent="1" vertex="1">
          <mxGeometry x="475" y="385" width="60" height="30" as="geometry" />
        </mxCell>
        <mxCell id="xXiE4sU7MH-f-Pu0WzMa-43" value="GND" style="text;html=1;align=center;verticalAlign=middle;whiteSpace=wrap;rounded=0;" parent="1" vertex="1">
          <mxGeometry x="307" y="367" width="60" height="30" as="geometry" />
        </mxCell>
        <mxCell id="xXiE4sU7MH-f-Pu0WzMa-44" value="SCL (GPIO 3)&amp;nbsp;" style="text;html=1;align=center;verticalAlign=middle;whiteSpace=wrap;rounded=0;" parent="1" vertex="1">
          <mxGeometry x="440" y="286" width="85" height="30" as="geometry" />
        </mxCell>
        <mxCell id="xXiE4sU7MH-f-Pu0WzMa-45" value="SDA (GPIO 2)&amp;nbsp;" style="text;html=1;align=center;verticalAlign=middle;whiteSpace=wrap;rounded=0;" parent="1" vertex="1">
          <mxGeometry x="440" y="260" width="85" height="30" as="geometry" />
        </mxCell>
        <mxCell id="xXiE4sU7MH-f-Pu0WzMa-46" value="" style="endArrow=classic;startArrow=classic;html=1;rounded=0;entryX=0.457;entryY=1.019;entryDx=0;entryDy=0;exitX=1;exitY=0.5;exitDx=0;exitDy=0;entryPerimeter=0;" parent="1" source="xXiE4sU7MH-f-Pu0WzMa-45" target="xXiE4sU7MH-f-Pu0WzMa-5" edge="1">
          <mxGeometry width="50" height="50" relative="1" as="geometry">
            <mxPoint x="535" y="310" as="sourcePoint" />
            <mxPoint x="630" y="180" as="targetPoint" />
            <Array as="points">
              <mxPoint x="580" y="275" />
            </Array>
          </mxGeometry>
        </mxCell>
        <mxCell id="xXiE4sU7MH-f-Pu0WzMa-50" value="" style="endArrow=none;html=1;rounded=0;exitX=1;exitY=0.5;exitDx=0;exitDy=0;entryX=0.75;entryY=1;entryDx=0;entryDy=0;endFill=0;startArrow=classic;startFill=1;" parent="1" source="xXiE4sU7MH-f-Pu0WzMa-27" target="xXiE4sU7MH-f-Pu0WzMa-26" edge="1">
          <mxGeometry width="50" height="50" relative="1" as="geometry">
            <mxPoint x="420" y="570" as="sourcePoint" />
            <mxPoint x="470" y="520" as="targetPoint" />
            <Array as="points">
              <mxPoint x="520" y="865" />
              <mxPoint x="520" y="810" />
              <mxPoint x="492" y="810" />
            </Array>
          </mxGeometry>
        </mxCell>
        <mxCell id="xXiE4sU7MH-f-Pu0WzMa-51" value="-" style="text;html=1;align=center;verticalAlign=middle;whiteSpace=wrap;rounded=0;" parent="1" vertex="1">
          <mxGeometry x="450" y="850" width="60" height="30" as="geometry" />
        </mxCell>
        <mxCell id="xXiE4sU7MH-f-Pu0WzMa-52" value="+" style="text;html=1;align=center;verticalAlign=middle;whiteSpace=wrap;rounded=0;" parent="1" vertex="1">
          <mxGeometry x="340" y="850" width="60" height="30" as="geometry" />
        </mxCell>
        <mxCell id="xXiE4sU7MH-f-Pu0WzMa-53" value="" style="endArrow=classic;html=1;rounded=0;entryX=0.224;entryY=0.998;entryDx=0;entryDy=0;exitX=0.001;exitY=0.782;exitDx=0;exitDy=0;exitPerimeter=0;startArrow=classic;startFill=1;entryPerimeter=0;" parent="1" source="xXiE4sU7MH-f-Pu0WzMa-26" target="xXiE4sU7MH-f-Pu0WzMa-8" edge="1">
          <mxGeometry width="50" height="50" relative="1" as="geometry">
            <mxPoint x="410" y="680" as="sourcePoint" />
            <mxPoint x="460" y="630" as="targetPoint" />
            <Array as="points">
              <mxPoint x="80" y="760" />
            </Array>
          </mxGeometry>
        </mxCell>
        <mxCell id="xXiE4sU7MH-f-Pu0WzMa-54" value="" style="endArrow=classic;html=1;rounded=0;entryX=0.75;entryY=1;entryDx=0;entryDy=0;exitX=-0.001;exitY=0.446;exitDx=0;exitDy=0;exitPerimeter=0;startArrow=classic;startFill=1;" parent="1" source="xXiE4sU7MH-f-Pu0WzMa-26" target="xXiE4sU7MH-f-Pu0WzMa-8" edge="1">
          <mxGeometry width="50" height="50" relative="1" as="geometry">
            <mxPoint x="425" y="735" as="sourcePoint" />
            <mxPoint x="143" y="440" as="targetPoint" />
            <Array as="points">
              <mxPoint x="138" y="730" />
            </Array>
          </mxGeometry>
        </mxCell>
        <mxCell id="xXiE4sU7MH-f-Pu0WzMa-55" value="A+" style="text;html=1;align=center;verticalAlign=middle;whiteSpace=wrap;rounded=0;" parent="1" vertex="1">
          <mxGeometry x="520" y="714" width="60" height="30" as="geometry" />
        </mxCell>
        <mxCell id="xXiE4sU7MH-f-Pu0WzMa-56" value="A-" style="text;html=1;align=center;verticalAlign=middle;whiteSpace=wrap;rounded=0;" parent="1" vertex="1">
          <mxGeometry x="520" y="744" width="60" height="30" as="geometry" />
        </mxCell>
        <mxCell id="xXiE4sU7MH-f-Pu0WzMa-57" value="" style="endArrow=classic;html=1;rounded=0;entryX=0.27;entryY=0.999;entryDx=0;entryDy=0;exitX=1.003;exitY=0.434;exitDx=0;exitDy=0;exitPerimeter=0;entryPerimeter=0;startArrow=classic;startFill=1;" parent="1" source="xXiE4sU7MH-f-Pu0WzMa-26" target="xXiE4sU7MH-f-Pu0WzMa-11" edge="1">
          <mxGeometry width="50" height="50" relative="1" as="geometry">
            <mxPoint x="375" y="715" as="sourcePoint" />
            <mxPoint x="148" y="450" as="targetPoint" />
            <Array as="points">
              <mxPoint x="720" y="730" />
            </Array>
          </mxGeometry>
        </mxCell>
        <mxCell id="xXiE4sU7MH-f-Pu0WzMa-58" value="B+" style="text;html=1;align=center;verticalAlign=middle;whiteSpace=wrap;rounded=0;" parent="1" vertex="1">
          <mxGeometry x="270" y="715" width="60" height="30" as="geometry" />
        </mxCell>
        <mxCell id="xXiE4sU7MH-f-Pu0WzMa-59" value="B-" style="text;html=1;align=center;verticalAlign=middle;whiteSpace=wrap;rounded=0;" parent="1" vertex="1">
          <mxGeometry x="270" y="744" width="60" height="30" as="geometry" />
        </mxCell>
        <mxCell id="xXiE4sU7MH-f-Pu0WzMa-60" value="" style="endArrow=classic;html=1;rounded=0;exitX=1;exitY=0.75;exitDx=0;exitDy=0;entryX=0.725;entryY=0.999;entryDx=0;entryDy=0;entryPerimeter=0;startArrow=classic;startFill=1;" parent="1" source="xXiE4sU7MH-f-Pu0WzMa-26" target="xXiE4sU7MH-f-Pu0WzMa-11" edge="1">
          <mxGeometry width="50" height="50" relative="1" as="geometry">
            <mxPoint x="495" y="715" as="sourcePoint" />
            <mxPoint x="728" y="480" as="targetPoint" />
            <Array as="points">
              <mxPoint x="770" y="758" />
            </Array>
          </mxGeometry>
        </mxCell>
        <mxCell id="xXiE4sU7MH-f-Pu0WzMa-62" value="" style="endArrow=classic;html=1;rounded=0;exitX=0.5;exitY=1;exitDx=0;exitDy=0;entryX=0;entryY=0.5;entryDx=0;entryDy=0;" parent="1" source="xXiE4sU7MH-f-Pu0WzMa-2" target="xXiE4sU7MH-f-Pu0WzMa-65" edge="1">
          <mxGeometry width="50" height="50" relative="1" as="geometry">
            <mxPoint x="340" y="480" as="sourcePoint" />
            <mxPoint x="390" y="430" as="targetPoint" />
            <Array as="points">
              <mxPoint x="265" y="445" />
            </Array>
          </mxGeometry>
        </mxCell>
        <mxCell id="xXiE4sU7MH-f-Pu0WzMa-63" value="" style="endArrow=classic;html=1;rounded=0;exitX=0.5;exitY=1;exitDx=0;exitDy=0;entryX=0;entryY=0.5;entryDx=0;entryDy=0;" parent="1" source="xXiE4sU7MH-f-Pu0WzMa-4" target="xXiE4sU7MH-f-Pu0WzMa-64" edge="1">
          <mxGeometry width="50" height="50" relative="1" as="geometry">
            <mxPoint x="340" y="480" as="sourcePoint" />
            <mxPoint x="390" y="430" as="targetPoint" />
            <Array as="points">
              <mxPoint x="420" y="210" />
              <mxPoint x="280" y="210" />
              <mxPoint x="280" y="486" />
            </Array>
          </mxGeometry>
        </mxCell>
        <mxCell id="xXiE4sU7MH-f-Pu0WzMa-64" value="/ttyACM0" style="text;html=1;align=center;verticalAlign=middle;whiteSpace=wrap;rounded=0;" parent="1" vertex="1">
          <mxGeometry x="315" y="470" width="60" height="30" as="geometry" />
        </mxCell>
        <mxCell id="xXiE4sU7MH-f-Pu0WzMa-65" value="/ttyUSB0" style="text;html=1;align=center;verticalAlign=middle;whiteSpace=wrap;rounded=0;" parent="1" vertex="1">
          <mxGeometry x="315" y="430" width="60" height="30" as="geometry" />
        </mxCell>
        <mxCell id="xXiE4sU7MH-f-Pu0WzMa-66" value="" style="endArrow=classic;html=1;rounded=0;exitX=0;exitY=0.75;exitDx=0;exitDy=0;entryX=0.11;entryY=-0.003;entryDx=0;entryDy=0;entryPerimeter=0;" parent="1" source="xXiE4sU7MH-f-Pu0WzMa-1" target="xXiE4sU7MH-f-Pu0WzMa-26" edge="1">
          <mxGeometry width="50" height="50" relative="1" as="geometry">
            <mxPoint x="330" y="690" as="sourcePoint" />
            <mxPoint x="390" y="690" as="targetPoint" />
            <Array as="points">
              <mxPoint x="260" y="523" />
              <mxPoint x="260" y="660" />
              <mxPoint x="320" y="660" />
            </Array>
          </mxGeometry>
        </mxCell>
        <mxCell id="xXiE4sU7MH-f-Pu0WzMa-67" value="" style="endArrow=classic;html=1;rounded=0;exitX=-0.004;exitY=0.805;exitDx=0;exitDy=0;exitPerimeter=0;entryX=0.258;entryY=-0.005;entryDx=0;entryDy=0;entryPerimeter=0;" parent="1" source="xXiE4sU7MH-f-Pu0WzMa-1" target="xXiE4sU7MH-f-Pu0WzMa-26" edge="1">
          <mxGeometry width="50" height="50" relative="1" as="geometry">
            <mxPoint x="325" y="563" as="sourcePoint" />
            <mxPoint x="410" y="690" as="targetPoint" />
            <Array as="points">
              <mxPoint x="280" y="544" />
              <mxPoint x="280" y="640" />
              <mxPoint x="360" y="640" />
            </Array>
          </mxGeometry>
        </mxCell>
        <mxCell id="xXiE4sU7MH-f-Pu0WzMa-68" style="edgeStyle=orthogonalEdgeStyle;rounded=0;orthogonalLoop=1;jettySize=auto;html=1;exitX=0.446;exitY=1;exitDx=0;exitDy=0;exitPerimeter=0;" parent="1" source="xXiE4sU7MH-f-Pu0WzMa-1" edge="1">
          <mxGeometry relative="1" as="geometry">
            <mxPoint x="409" y="690" as="targetPoint" />
          </mxGeometry>
        </mxCell>
        <mxCell id="xXiE4sU7MH-f-Pu0WzMa-70" value="" style="endArrow=classic;html=1;rounded=0;exitX=1;exitY=0.75;exitDx=0;exitDy=0;entryX=0.778;entryY=-0.003;entryDx=0;entryDy=0;entryPerimeter=0;" parent="1" source="xXiE4sU7MH-f-Pu0WzMa-1" target="xXiE4sU7MH-f-Pu0WzMa-26" edge="1">
          <mxGeometry width="50" height="50" relative="1" as="geometry">
            <mxPoint x="324" y="554" as="sourcePoint" />
            <mxPoint x="460" y="690" as="targetPoint" />
            <Array as="points">
              <mxPoint x="550" y="523" />
              <mxPoint x="550" y="580" />
              <mxPoint x="550" y="640" />
              <mxPoint x="500" y="640" />
            </Array>
          </mxGeometry>
        </mxCell>
        <mxCell id="xXiE4sU7MH-f-Pu0WzMa-71" value="" style="endArrow=classic;html=1;rounded=0;exitX=0.998;exitY=0.683;exitDx=0;exitDy=0;entryX=0.925;entryY=0;entryDx=0;entryDy=0;entryPerimeter=0;exitPerimeter=0;" parent="1" source="xXiE4sU7MH-f-Pu0WzMa-1" target="xXiE4sU7MH-f-Pu0WzMa-26" edge="1">
          <mxGeometry width="50" height="50" relative="1" as="geometry">
            <mxPoint x="550" y="522" as="sourcePoint" />
            <mxPoint x="465" y="690" as="targetPoint" />
            <Array as="points">
              <mxPoint x="575" y="496" />
              <mxPoint x="575" y="580" />
              <mxPoint x="575" y="670" />
              <mxPoint x="540" y="670" />
            </Array>
          </mxGeometry>
        </mxCell>
        <mxCell id="xXiE4sU7MH-f-Pu0WzMa-74" value="INB2" style="text;html=1;align=center;verticalAlign=middle;whiteSpace=wrap;rounded=0;" parent="1" vertex="1">
          <mxGeometry x="290" y="683.5" width="60" height="30" as="geometry" />
        </mxCell>
        <mxCell id="xXiE4sU7MH-f-Pu0WzMa-75" value="PWMB" style="text;html=1;align=center;verticalAlign=middle;whiteSpace=wrap;rounded=0;" parent="1" vertex="1">
          <mxGeometry x="380" y="683.5" width="60" height="30" as="geometry" />
        </mxCell>
        <mxCell id="xXiE4sU7MH-f-Pu0WzMa-76" value="PWMA" style="text;html=1;align=center;verticalAlign=middle;whiteSpace=wrap;rounded=0;" parent="1" vertex="1">
          <mxGeometry x="425" y="683.5" width="60" height="30" as="geometry" />
        </mxCell>
        <mxCell id="xXiE4sU7MH-f-Pu0WzMa-77" value="VIN" style="text;html=1;align=center;verticalAlign=middle;whiteSpace=wrap;rounded=0;" parent="1" vertex="1">
          <mxGeometry x="326" y="760" width="60" height="30" as="geometry" />
        </mxCell>
        <mxCell id="xXiE4sU7MH-f-Pu0WzMa-78" value="GND" style="text;html=1;align=center;verticalAlign=middle;whiteSpace=wrap;rounded=0;" parent="1" vertex="1">
          <mxGeometry x="460" y="760" width="60" height="30" as="geometry" />
        </mxCell>
        <mxCell id="xXiE4sU7MH-f-Pu0WzMa-79" value="GPIO 5" style="text;html=1;align=center;verticalAlign=middle;whiteSpace=wrap;rounded=0;" parent="1" vertex="1">
          <mxGeometry x="470" y="482" width="60" height="30" as="geometry" />
        </mxCell>
        <mxCell id="xXiE4sU7MH-f-Pu0WzMa-80" value="GPIO 6" style="text;html=1;align=center;verticalAlign=middle;whiteSpace=wrap;rounded=0;" parent="1" vertex="1">
          <mxGeometry x="470" y="504" width="60" height="30" as="geometry" />
        </mxCell>
        <mxCell id="xXiE4sU7MH-f-Pu0WzMa-81" value="INA2" style="text;html=1;align=center;verticalAlign=middle;whiteSpace=wrap;rounded=0;" parent="1" vertex="1">
          <mxGeometry x="510" y="683.5" width="60" height="30" as="geometry" />
        </mxCell>
        <mxCell id="xXiE4sU7MH-f-Pu0WzMa-82" value="INA1" style="text;html=1;align=center;verticalAlign=middle;whiteSpace=wrap;rounded=0;" parent="1" vertex="1">
          <mxGeometry x="470" y="683.5" width="60" height="30" as="geometry" />
        </mxCell>
        <mxCell id="xXiE4sU7MH-f-Pu0WzMa-83" value="INB1" style="text;html=1;align=center;verticalAlign=middle;whiteSpace=wrap;rounded=0;" parent="1" vertex="1">
          <mxGeometry x="326" y="683.5" width="60" height="30" as="geometry" />
        </mxCell>
        <mxCell id="xXiE4sU7MH-f-Pu0WzMa-84" value="GPIO 16" style="text;html=1;align=center;verticalAlign=middle;whiteSpace=wrap;rounded=0;" parent="1" vertex="1">
          <mxGeometry x="315" y="502" width="60" height="30" as="geometry" />
        </mxCell>
        <mxCell id="xXiE4sU7MH-f-Pu0WzMa-85" value="GPIO 26" style="text;html=1;align=center;verticalAlign=middle;whiteSpace=wrap;rounded=0;" parent="1" vertex="1">
          <mxGeometry x="315" y="530" width="60" height="30" as="geometry" />
        </mxCell>
        <mxCell id="xXiE4sU7MH-f-Pu0WzMa-86" value="GPIO 12" style="text;html=1;align=center;verticalAlign=middle;whiteSpace=wrap;rounded=0;" parent="1" vertex="1">
          <mxGeometry x="435" y="590" width="60" height="30" as="geometry" />
        </mxCell>
        <mxCell id="xXiE4sU7MH-f-Pu0WzMa-87" value="GPIO 13" style="text;html=1;align=center;verticalAlign=middle;whiteSpace=wrap;rounded=0;" parent="1" vertex="1">
          <mxGeometry x="375" y="590" width="60" height="30" as="geometry" />
        </mxCell>
        <mxCell id="xXiE4sU7MH-f-Pu0WzMa-88" value="GPIO 24" style="text;html=1;align=center;verticalAlign=middle;whiteSpace=wrap;rounded=0;" parent="1" vertex="1">
          <mxGeometry x="315" y="310" width="60" height="30" as="geometry" />
        </mxCell>
        <mxCell id="xXiE4sU7MH-f-Pu0WzMa-89" value="GPIO 17" style="text;html=1;align=center;verticalAlign=middle;whiteSpace=wrap;rounded=0;" parent="1" vertex="1">
          <mxGeometry x="465" y="340" width="60" height="30" as="geometry" />
        </mxCell>
        <mxCell id="xXiE4sU7MH-f-Pu0WzMa-90" value="signal out" style="text;html=1;align=center;verticalAlign=middle;whiteSpace=wrap;rounded=0;" parent="1" vertex="1">
          <mxGeometry x="180" y="316" width="60" height="30" as="geometry" />
        </mxCell>
        <mxCell id="xXiE4sU7MH-f-Pu0WzMa-91" value="signal out" style="text;html=1;align=center;verticalAlign=middle;whiteSpace=wrap;rounded=0;" parent="1" vertex="1">
          <mxGeometry x="620" y="346" width="60" height="30" as="geometry" />
        </mxCell>
        <mxCell id="xXiE4sU7MH-f-Pu0WzMa-92" value="+" style="text;html=1;align=center;verticalAlign=middle;whiteSpace=wrap;rounded=0;" parent="1" vertex="1">
          <mxGeometry x="107" y="420" width="60" height="30" as="geometry" />
        </mxCell>
        <mxCell id="xXiE4sU7MH-f-Pu0WzMa-93" value="+" style="text;html=1;align=center;verticalAlign=middle;whiteSpace=wrap;rounded=0;" parent="1" vertex="1">
          <mxGeometry x="690" y="450" width="60" height="30" as="geometry" />
        </mxCell>
        <mxCell id="xXiE4sU7MH-f-Pu0WzMa-94" value="-" style="text;html=1;align=center;verticalAlign=middle;whiteSpace=wrap;rounded=0;" parent="1" vertex="1">
          <mxGeometry x="740" y="450" width="60" height="30" as="geometry" />
        </mxCell>
        <mxCell id="xXiE4sU7MH-f-Pu0WzMa-95" value="-" style="text;html=1;align=center;verticalAlign=middle;whiteSpace=wrap;rounded=0;" parent="1" vertex="1">
          <mxGeometry x="50" y="420" width="60" height="30" as="geometry" />
        </mxCell>
      </root>
    </mxGraphModel>
  </diagram>
</mxfile>
